<svg version="1.0" xmlns="http://www.w3.org/2000/svg" width="346.667" height="346.667" viewBox="0 0 260 260"><path d="M96.3 22.2c-.4.7-.9 13.7-1 28.8 0 15.1-.2 27.8-.2 28.3-.1.4-2.4-1.1-5.2-3.3-5.5-4.4-6.3-4.3-11.8.5-4.4 3.9-34.2 28.4-37 30.4l-2.6 1.9v61.1c0 33.5-.3 61.3-.7 61.7-.4.3-8.6.6-18.2.6-18.6 0-20.5.5-19.1 4.8l.6 2h128.3c115.9 0 128.5-.2 129.7-1.6.9-1.1 1-2 .2-3.2-.9-1.5-3.3-1.7-18.2-1.8-9.4-.1-17.4-.4-17.7-.7-.3-.3-.6-24.9-.6-54.7v-54.1l-5-6.2c-2.8-3.4-8-9.9-11.7-14.4-3.6-4.6-7.4-8.3-8.3-8.3-1.7 0-13 5.7-18 9.2l-2.8 1.9V86.2l-9.2-7.9c-5-4.3-9.9-8.5-10.7-9.3-.9-.8-4.1-3.5-7.1-6-3-2.4-8.7-7.2-12.5-10.5-3.9-3.3-9.3-7.9-12-10.1-2.8-2.3-9.6-8.1-15.3-12.8-10.3-8.6-12.4-9.7-13.9-7.4zM124.1 50c10.1 8.5 20 17.1 21.9 19l3.6 3.5-.1 32.8v32.9l-7.5 4c-4.1 2.3-10.9 6-15 8.3l-7.5 4.3-.5 38.7-.5 38.8-5.7-.1c-3.2 0-6.9-.1-8.2-.1l-2.4-.1-.1-100c0-95.5.1-100 1.8-98.8 1 .7 10 8.3 20.2 16.8zM163 83c3 2.7 5.8 5 6.3 5 .4 0 .7 32.4.7 71.9v71.9l-3.2.3c-1.8.2-4.9.2-6.9-.1l-3.5-.5v-76.8c0-42.2.3-76.7.6-76.7s3 2.3 6 5zm-71.1 2.9 3.5 2.9v71.6c.1 70.9.1 71.6-1.9 71.7-2.5.2-4.9-.2-5.4-.7-.7-.6-.7-148.4-.1-148.4.3 0 2 1.3 3.9 2.9zM81 158v74l-2.2.1c-2.7.1-30.8.1-32.5 0-1-.1-1.2-13.7-1.2-59.9l.1-59.9 10.2-8.1c5.5-4.5 13.3-10.9 17.1-14.1 3.9-3.3 7.3-6 7.8-6 .4-.1.7 33.2.7 73.9zm112.6 73.8c-.7.6-15.5.6-16.1 0-.6-.5-.9-118.8-.3-119.3.2-.2 3.9-2.4 8.3-4.8l8-4.6.3 64.1c.1 35.3 0 64.3-.2 64.6zm22.4-53.2c0 42-.3 53.4-1.2 53.5-4.6.2-13.1 0-13.5-.5-.4-.4-.7-101.3-.4-120.4l.1-4.4 7.5 9.2 7.5 9.2v53.4zM149.5 189v43l-2.5.1c-7 .3-20.3 0-20.8-.5-.4-.5-.7-65.4-.3-71.3.1-1.2 8.9-6.7 18.7-11.7 2.7-1.4 4.9-2.6 4.9-2.6v43z"/></svg>